<svg width="277" height="229" viewBox="0 0 277 229" fill="none" xmlns="http://www.w3.org/2000/svg">
<path d="M65.9773 213.194C49.941 233.322 24.5978 231.337 10.3569 216.921C-5.70305 200.663 -2.70705 173.276 16.718 161.221C20.2303 159.042 24.6053 157.57 28.7044 157.224C32.2712 156.924 34.2944 155.473 36.4942 153.133C41.0293 148.309 45.9254 143.824 50.4538 138.994C53.9503 135.265 57.175 131.272 60.3714 127.277C61.0163 126.471 61.2349 125.129 61.238 124.033C61.2893 106.052 61.2744 88.0696 61.2744 69.9373C49.0974 65.6789 40.1296 58.099 36.8539 45.5812C34.3428 35.9853 34.8106 26.3133 40.2314 17.4225C48.5751 3.73772 64.8339 -2.88474 80.2757 1.191C95.0777 5.09789 106.082 18.8218 106.863 34.349C107.573 48.4573 98.8812 62.5092 85.4028 67.9577C81.8332 69.4007 81.2625 71.263 81.2804 74.5499C81.3765 92.207 81.1714 109.866 81.355 127.522C81.4086 132.678 80.0458 136.657 76.3117 140.405C69.6256 147.115 63.4722 154.356 56.9143 161.575C67.6253 169.296 72.2716 180 72.8675 193.501C70.4873 200.608 68.2323 206.901 65.9773 213.194ZM23.9924 201.364C28.1873 205.807 32.5156 209.073 39.4307 207.143C46.3595 205.209 52.1453 199.82 52.9675 192.976C53.704 186.847 49.258 179.711 43.0739 177.098C36.7542 174.427 28.8726 176.317 24.4951 181.553C19.7926 187.178 19.3935 194.678 23.9924 201.364ZM56.1015 33.9412C56.0994 35.4331 55.9702 36.9375 56.1163 38.4146C56.9148 46.4829 65.3168 52.3239 73.9638 50.8782C82.022 49.531 88.002 41.0019 86.2284 33.3859C84.5818 26.3155 79.1188 21.3702 72.5895 21.0392C64.2266 20.6153 59.1499 24.3472 56.1015 33.9412Z" fill="#FF7065"/>
<path d="M66.3926 213.242C68.2323 206.901 70.4873 200.608 72.8793 193.909C84.8438 193.608 96.6718 193.794 108.498 193.726C110.267 193.716 112.481 192.981 113.718 191.784C121.259 184.49 128.692 177.072 135.86 169.414C137.064 168.127 137.558 165.282 137.106 163.476C132.606 145.495 141.265 128.319 157.545 122.715C164.565 120.299 171.761 121.099 178.776 123.437C181.355 124.297 183.632 124.679 185.759 121.959C196.32 108.456 207.059 95.092 217.707 81.7155C205.657 66.0577 207.218 46.3061 222.264 34.0638C225.778 31.2044 230.628 29.6654 235.11 28.3769C248.715 24.4659 260.264 28.1762 269.166 39.1439C277.711 49.6722 278.738 65.107 272.095 76.6451C265.186 88.6431 251.851 94.9724 237.215 92.8685C234.773 92.5175 233.379 92.766 231.832 94.7609C220.92 108.837 209.835 122.78 198.962 136.886C198.116 137.982 197.834 140.255 198.357 141.55C202.966 152.96 201.603 163.156 194.478 173.457C187.952 182.893 179.452 187.151 168.54 186.921C164.052 186.826 159.361 185.776 155.2 184.085C151.877 182.735 150.175 183.531 147.98 185.738C139.99 193.767 131.716 201.516 123.846 209.657C120.925 212.68 117.643 214.088 113.724 214.045C98.0841 213.876 82.4463 213.554 66.3926 213.242ZM247.183 73.9672C248.168 73.4177 249.129 72.8184 250.142 72.3268C256.476 69.2535 257.3 63.5464 256.774 57.5563C256.342 52.6375 251.557 48.3308 246.66 46.9976C240.343 45.2777 235.554 46.5611 231.93 52.4283C228.802 57.4914 228.357 62.264 231.531 67.1836C234.732 72.1438 241.244 75.1169 247.183 73.9672ZM156.081 151.086C155.998 152.246 155.925 153.406 155.833 154.565C155.298 161.318 162.413 168.631 168.953 168.703C175.561 168.775 182.416 160.641 182.194 153.724C182.005 147.813 177.528 142.328 171.936 141.158C165.054 139.718 159.725 142.803 156.081 151.086Z" fill="#7859EC"/>
<path d="M23.7314 201.088C19.3935 194.678 19.7926 187.178 24.4951 181.553C28.8726 176.317 36.7542 174.427 43.0739 177.098C49.258 179.711 53.704 186.847 52.9676 192.976C52.1453 199.82 46.3595 205.209 39.4307 207.143C32.5156 209.073 28.1874 205.807 23.7314 201.088Z" fill="#FEFEFD"/>
<path d="M56.1341 33.5262C59.1499 24.3472 64.2266 20.6154 72.5895 21.0392C79.1188 21.3702 84.5818 26.3155 86.2284 33.3859C88.002 41.0019 82.022 49.531 73.9638 50.8782C65.3168 52.3239 56.9148 46.4829 56.1163 38.4146C55.9701 36.9375 56.0994 35.4331 56.1341 33.5262Z" fill="#FEFEFD"/>
<path d="M246.782 73.9656C241.244 75.1169 234.732 72.1438 231.531 67.1836C228.357 62.264 228.802 57.4914 231.93 52.4283C235.554 46.5611 240.343 45.2777 246.66 46.9976C251.557 48.3308 256.342 52.6375 256.774 57.5563C257.3 63.5464 256.476 69.2535 250.142 72.3268C249.129 72.8184 248.168 73.4177 246.782 73.9656Z" fill="#FEFEFD"/>
<path d="M156.141 150.677C159.725 142.803 165.054 139.718 171.936 141.158C177.528 142.328 182.005 147.813 182.194 153.724C182.416 160.641 175.561 168.775 168.953 168.703C162.413 168.631 155.298 161.318 155.833 154.565C155.925 153.406 155.999 152.246 156.141 150.677Z" fill="#FEFEFD"/>
</svg>
